<?xml version="1.0" encoding="iso-8859-1"?>
<!-- Generator: Adobe Illustrator 16.0.0, SVG Export Plug-In . SVG Version: 6.00 Build 0)  -->
<!DOCTYPE svg PUBLIC "-//W3C//DTD SVG 1.1//EN" "http://www.w3.org/Graphics/SVG/1.1/DTD/svg11.dtd">
<svg version="1.1" id="Capa_1" xmlns="http://www.w3.org/2000/svg" xmlns:xlink="http://www.w3.org/1999/xlink" x="0px" y="0px"
	 width="124.912px" height="124.912px" viewBox="0 0 124.912 124.912" style="enable-background:new 0 0 124.912 124.912;"
	 xml:space="preserve">
<g>
	<g>
		<path d="M40.646,36.982c-5.746,7.14-7.302,17.178-4.164,26.493L6.858,96.539c-1.257,1.402-1.264,3.521-0.021,4.934
			c1.244,1.413,3.349,1.669,4.896,0.601l14.569-10.069c0.31,1.721,0.969,3.404,2.026,4.933c3.957,5.728,11.834,7.166,17.562,3.208
			c5.727-3.957,7.168-11.835,3.21-17.562c-1.057-1.529-2.398-2.741-3.898-3.639l1.375-0.948c3.685,2.98,7.907,4.999,12.269,5.962
			l3.273,4.734c-0.479,0.974-0.444,2.163,0.215,3.117l2.039,2.95c0.971,1.404,2.895,1.755,4.298,0.785
			c0.669-0.463,1.093-1.147,1.253-1.886c0.747,0.111,1.537-0.042,2.208-0.507c1.403-0.969,1.755-2.893,0.784-4.296l-2.038-2.949
			c-0.657-0.955-1.76-1.409-2.839-1.306l-0.127-0.184c3.329-0.406,6.579-1.464,9.57-3.215l1.662,2.406
			c-0.594,1.208-0.551,2.688,0.27,3.873l2.532,3.666c1.204,1.744,3.595,2.181,5.339,0.976c1.742-1.205,2.179-3.594,0.975-5.338
			l-2.533-3.666c-0.817-1.188-2.187-1.75-3.526-1.62l-1.663-2.406c2.411-1.948,4.375-4.286,5.878-6.882
			c-0.287,0.881-0.185,1.875,0.382,2.695l2.04,2.949c0.97,1.403,2.894,1.756,4.296,0.786c0.672-0.464,1.094-1.147,1.254-1.888
			c0.748,0.112,1.538-0.042,2.209-0.506c1.402-0.969,1.754-2.894,0.784-4.295l-2.039-2.951c-0.659-0.954-1.76-1.407-2.838-1.304
			l-2.93-4.241c0.817-4.662,0.473-9.626-1.107-14.408l1.374-0.95c0.309,1.72,0.971,3.404,2.026,4.933
			c3.957,5.727,11.836,7.166,17.563,3.208c5.727-3.958,7.166-11.836,3.207-17.563c-1.056-1.529-2.396-2.742-3.896-3.639
			l14.569-10.069c1.547-1.069,2.051-3.129,1.17-4.792c-0.881-1.662-2.866-2.404-4.623-1.725l-41.402,16.02
			c-7.602-6.228-17.54-8.322-26.246-5.476L32.127,8.106c-0.754-0.784-1.963-0.909-2.862-0.297c-0.923,0.589-1.222,1.784-0.77,2.772
			L40.646,36.982z M99.296,41.576c2.358-1.63,5.603-1.038,7.231,1.32c1.63,2.359,1.035,5.603-1.32,7.233
			c-2.357,1.628-5.604,1.037-7.232-1.322C96.348,46.449,96.939,43.205,99.296,41.576z M41.671,94.035
			c-2.358,1.63-5.604,1.038-7.232-1.32c-1.63-2.359-1.037-5.603,1.32-7.233c2.358-1.629,5.604-1.035,7.233,1.322
			C44.62,89.162,44.028,92.406,41.671,94.035z M65.922,33.198l7.485,7.163L43.776,60.837l-4.052-9.536L65.922,33.198z"/>
		<rect y="109.878" width="124.826" height="7.612"/>
		<polygon points="11.709,71.666 7.082,84.225 19.779,76.366 18.24,73.878 12.761,77.271 15.369,70.193 9.064,67.13 15.369,65.045 
			14.993,57.584 20.451,60.739 25.924,56.345 25.181,65.764 28.095,65.995 29.373,49.829 20.181,57.206 11.799,52.36 12.337,62.967 
			1.312,66.614 		"/>
	</g>
</g>
<g>
</g>
<g>
</g>
<g>
</g>
<g>
</g>
<g>
</g>
<g>
</g>
<g>
</g>
<g>
</g>
<g>
</g>
<g>
</g>
<g>
</g>
<g>
</g>
<g>
</g>
<g>
</g>
<g>
</g>
</svg>
